<?xml version="1.0" standalone="no"?>
<!DOCTYPE svg PUBLIC "-//W3C//DTD SVG 20010904//EN"
 "http://www.w3.org/TR/2001/REC-SVG-20010904/DTD/svg10.dtd">
<svg version="1.0" xmlns="http://www.w3.org/2000/svg"
 width="520.000000pt" height="520.000000pt" viewBox="0 0 520.000000 520.000000"
 preserveAspectRatio="xMidYMid meet">

<g transform="translate(0.000000,520.000000) scale(0.100000,-0.100000)"
fill="#000000" stroke="none">
<path d="M0 2600 l0 -2600 228 0 227 1 63 113 c101 180 123 200 248 226 67 14
57 30 -20 30 l-48 0 6 33 c3 17 29 78 56 133 41 84 60 111 115 161 123 114
286 169 474 161 75 -3 107 -9 144 -27 43 -21 53 -22 87 -12 60 18 108 14 120
-9 10 -18 8 -20 -20 -20 -34 0 -38 -13 -16 -64 22 -53 98 -107 309 -221 63
-33 91 -55 99 -74 15 -38 4 -105 -42 -259 -23 -75 -44 -146 -47 -157 -5 -17
-3 -18 9 -8 11 10 17 10 26 1 15 -15 15 -3 0 21 -18 29 17 134 56 169 17 15
39 41 49 57 12 19 1 11 -27 -20 -25 -27 -45 -45 -46 -39 0 20 23 79 39 98 11
14 12 17 2 11 -11 -6 -13 -3 -8 16 4 13 7 35 7 48 0 22 1 22 40 -13 22 -20 46
-36 53 -36 7 0 21 -12 32 -26 21 -28 71 -58 84 -50 4 3 25 -13 46 -34 22 -22
47 -40 56 -40 26 0 13 -32 -32 -79 -22 -23 -37 -41 -33 -41 17 0 63 43 74 69
l12 30 52 -29 c28 -16 53 -37 55 -46 2 -13 -1 -15 -15 -10 -15 6 -17 5 -7 -5
7 -7 13 -24 13 -39 0 -20 2 -22 10 -10 6 10 10 11 10 3 0 -7 9 -13 20 -13 17
0 20 7 20 44 0 25 5 48 12 52 7 4 8 3 4 -4 -4 -7 -1 -12 9 -12 13 0 14 4 5 20
-6 11 -16 18 -22 14 -14 -9 22 54 40 68 9 8 12 6 12 -6 0 -9 7 -16 15 -16 8 0
15 -8 15 -19 0 -10 8 -25 18 -32 14 -11 15 -11 4 1 -30 34 -5 76 43 71 29 -3
99 47 135 95 20 28 40 44 61 48 22 4 61 35 125 98 52 50 94 87 94 81 0 -25
-33 -100 -54 -123 -13 -14 -25 -31 -28 -39 -3 -11 -7 -10 -21 3 -9 10 -17 13
-17 8 0 -5 9 -17 20 -27 11 -10 20 -29 20 -42 0 -13 8 -54 19 -91 14 -50 16
-71 7 -84 -10 -16 -15 -13 -55 25 -25 23 -38 33 -30 23 7 -11 26 -32 41 -46
19 -19 25 -32 21 -52 -3 -14 0 -34 7 -45 10 -16 11 -15 6 9 -7 30 9 82 23 74
5 -3 14 -27 20 -52 7 -26 14 -44 17 -41 3 3 -11 63 -30 133 -20 70 -36 146
-36 169 0 37 6 46 63 101 34 33 97 91 139 128 83 72 98 100 98 184 0 48 -26
83 -62 81 l-23 -1 23 -6 c13 -4 23 -11 22 -16 -1 -5 3 -12 8 -15 11 -7 15 -24
13 -63 l-1 -28 -77 0 c-150 0 -287 -32 -415 -96 -38 -18 -68 -30 -68 -26 0 3
-7 -4 -16 -16 -8 -12 -20 -20 -25 -16 -5 3 -17 0 -26 -8 -9 -7 -19 -12 -22
-10 -3 1 -6 -2 -6 -7 0 -5 -4 -13 -9 -18 -5 -5 -6 -3 -2 5 12 20 -9 14 -30 -9
-19 -22 -19 -22 2 -11 12 6 24 8 28 5 3 -3 15 2 26 12 12 11 28 20 36 21 9 1
23 9 32 17 27 24 171 93 231 111 67 20 271 40 312 31 24 -6 28 -9 18 -21 -6
-8 -8 -14 -3 -14 5 -1 -38 -45 -96 -100 -57 -54 -106 -97 -108 -95 -2 2 4 27
12 56 9 29 16 55 16 57 0 3 -47 -41 -105 -96 -78 -76 -113 -103 -139 -107 -25
-5 -41 -17 -60 -45 -37 -56 -91 -94 -132 -93 -18 1 -38 -5 -45 -13 -18 -22
-39 -17 -39 11 0 33 -12 32 -32 -3 -29 -48 -77 -99 -74 -79 1 10 8 22 15 26
10 6 9 10 -3 14 -18 7 -15 59 10 142 9 31 14 59 11 61 -10 11 -47 -138 -47
-191 0 -54 -1 -56 -22 -50 -29 9 -88 53 -88 65 0 5 -6 7 -14 4 -9 -3 -31 11
-55 35 -23 23 -47 38 -54 35 -17 -6 -77 42 -77 62 0 8 -10 14 -23 14 -33 0
-65 26 -103 85 -30 48 -46 60 -156 121 -144 78 -199 114 -177 114 32 0 238
-30 314 -45 89 -19 151 -41 180 -64 63 -51 165 -108 165 -92 0 5 12 8 28 6 25
-2 27 -6 25 -43 -1 -27 3 -42 12 -46 19 -7 23 2 30 55 l5 44 -13 -50 c-21 -85
-26 -35 -6 69 22 116 34 138 26 46 -4 -50 -3 -58 4 -32 7 25 15 32 34 32 23 0
24 -4 31 -91 5 -73 9 -89 21 -85 8 3 17 6 19 6 2 0 3 28 2 63 l-2 62 -3 -57
c-2 -32 -8 -58 -12 -58 -5 0 -11 34 -15 75 -8 85 -14 107 -27 99 -5 -3 -9 7
-9 21 l0 26 21 -20 c12 -11 25 -35 30 -53 l8 -33 -2 32 c-3 32 -1 34 122 104
138 79 230 140 304 202 l48 39 58 -26 c32 -14 74 -28 92 -31 22 -4 27 -2 16 3
-16 7 -13 10 18 25 36 17 100 22 142 11 16 -5 24 -18 32 -55 14 -62 2 -121
-37 -194 -17 -32 -29 -63 -25 -69 3 -6 3 -8 -2 -4 -10 10 -36 -26 -32 -44 2
-7 2 -10 0 -5 -8 13 -22 -3 -16 -19 3 -8 1 -14 -6 -12 -6 2 -21 -13 -33 -32
-19 -31 -15 -29 35 19 31 30 53 59 50 65 -3 6 -2 8 2 3 5 -4 19 3 33 15 l24
23 -7 -30 c-4 -16 -14 -41 -22 -55 -11 -20 -9 -19 11 5 15 17 47 71 73 122 39
77 47 103 49 155 l3 63 48 12 c26 6 71 12 99 12 l51 1 -41 44 c-22 25 -43 43
-45 40 -3 -3 -1 -8 4 -12 6 -4 21 -20 35 -35 l25 -28 -50 1 c-28 1 -61 -2 -75
-5 -19 -5 -22 -4 -10 4 13 9 13 11 -2 11 -9 0 -23 8 -30 18 -19 26 -67 54 -79
46 -6 -4 -4 -14 8 -27 18 -22 18 -22 -4 -4 -12 11 -19 25 -16 33 3 9 -2 14
-15 14 -21 0 -95 44 -87 51 2 2 -14 4 -36 4 -23 0 -43 -6 -48 -14 -7 -11 -9
-11 -14 0 -3 8 -6 9 -6 2 -1 -12 -61 40 -61 53 0 4 9 -1 20 -11 11 -10 20 -14
20 -10 0 4 10 0 22 -11 l21 -19 -6 33 c-5 23 -3 31 4 26 23 -14 2 20 -23 39
-17 13 -33 17 -45 12 -19 -8 -16 -9 30 -19 15 -4 27 -11 27 -17 0 -6 -11 -8
-29 -4 -17 3 -32 2 -36 -5 -3 -5 -11 -7 -17 -4 -7 4 -8 2 -4 -4 13 -21 -23
-13 -46 10 -13 13 -27 22 -31 20 -5 -1 -6 2 -3 7 4 5 -2 12 -11 14 -16 4 -15
5 2 7 12 1 1 7 -25 15 -28 8 -36 13 -22 14 30 1 28 17 -5 38 -37 23 -63 53
-64 72 0 12 -3 11 -9 -4 -6 -14 -9 -2 -9 43 -1 43 3 62 12 62 54 0 151 -26
202 -54 33 -18 84 -41 113 -50 29 -10 65 -28 80 -40 15 -13 49 -28 76 -35 69
-17 98 -34 142 -84 22 -24 53 -51 70 -60 40 -20 106 -87 140 -141 27 -42 29
-43 107 -55 248 -38 414 -168 504 -392 l31 -77 -42 18 c-22 10 -57 21 -76 24
-21 3 -12 -2 23 -13 77 -25 106 -46 123 -86 24 -59 20 -68 -24 -45 -61 31
-104 35 -131 11 l-23 -20 39 -10 c21 -5 54 -12 73 -16 56 -11 76 -30 122 -115
l43 -80 313 0 312 0 0 2600 0 2600 -2600 0 -2600 0 0 -2600z m2967 1958 c-3
-8 -6 -5 -6 6 -1 11 2 17 5 13 3 -3 4 -12 1 -19z m-276 -91 c131 -64 229 -163
229 -234 0 -18 -13 -60 -30 -93 -16 -33 -29 -70 -29 -82 1 -14 3 -17 6 -7 3
13 11 14 53 5 64 -13 92 2 122 63 12 25 22 50 22 56 1 5 16 19 35 32 27 19 46
22 100 21 36 -1 57 -3 45 -5 -29 -5 -69 -87 -68 -138 1 -47 19 -86 70 -146 52
-62 73 -114 75 -184 1 -33 4 -51 6 -39 2 11 19 35 38 53 43 41 46 80 9 156
-14 30 -22 60 -18 66 4 7 3 9 -3 6 -17 -10 -13 60 3 74 17 14 19 -2 2 -20 -11
-11 -10 -13 0 -7 7 5 23 -5 40 -26 15 -18 55 -59 89 -92 107 -100 153 -198
153 -327 0 -78 -24 -108 -88 -111 -46 -1 -47 -1 -8 -5 52 -6 82 11 100 57 8
20 26 45 41 54 15 10 33 32 40 50 23 54 18 171 -8 204 -5 7 -7 15 -5 18 3 3
12 -9 19 -25 8 -17 17 -31 22 -31 4 0 0 14 -8 31 -16 29 -16 30 4 20 31 -17
89 -91 119 -151 36 -73 37 -164 3 -267 -13 -40 -22 -75 -21 -79 1 -4 -2 -10
-7 -13 -9 -6 -30 -38 -59 -88 -15 -26 -15 -27 1 -6 16 20 17 21 45 5 35 -20
44 -14 68 53 17 49 65 97 109 109 l21 7 -20 -38 c-24 -47 -20 -106 22 -305 58
-270 35 -338 -124 -373 -82 -18 -136 -53 -136 -89 0 -15 3 -15 29 -1 17 8 33
20 37 27 4 6 -3 4 -17 -5 -29 -21 -40 -22 -32 -2 7 19 66 50 111 58 32 7 33 6
17 -15 -33 -48 -16 -87 53 -122 22 -12 32 -22 28 -32 -3 -9 -1 -12 4 -9 6 3
10 1 10 -4 0 -6 -7 -11 -15 -11 -8 0 -15 -5 -15 -11 0 -5 5 -7 10 -4 19 12 10
-2 -17 -26 -18 -15 -22 -17 -11 -4 16 20 16 20 -64 18 -94 -3 -107 -13 -108
-85 0 -27 -1 -48 -3 -48 -1 0 -20 9 -42 20 -22 11 -52 20 -67 20 -20 0 -28 5
-29 18 0 9 -5 4 -10 -13 -12 -41 -66 -105 -90 -105 -16 0 -19 7 -18 48 1 46 1
47 9 12 5 -19 6 -39 3 -44 -4 -5 -1 -6 5 -2 22 13 24 75 8 229 -17 161 -43
280 -69 321 -9 13 -34 38 -57 56 l-41 32 8 -28 c4 -16 8 -56 8 -89 0 -49 -3
-60 -17 -63 -15 -3 -18 4 -18 48 0 54 -44 165 -62 154 -5 -3 -8 -2 -7 3 3 17
-2 29 -21 53 -17 21 -19 21 -14 5 5 -16 4 -17 -4 -5 -6 8 -8 18 -5 23 7 11
-27 48 -38 41 -5 -3 -6 1 -4 8 3 8 -13 34 -36 59 -22 24 -50 55 -60 68 -10 13
-19 18 -19 11 0 -10 -3 -10 -15 0 -13 11 -14 10 -10 -2 3 -8 0 -15 -8 -15 -9
0 -12 10 -9 29 4 24 7 27 21 16 13 -10 14 -10 4 2 -7 8 -13 28 -14 45 -1 20
-6 9 -16 -35 l-15 -65 77 -77 c47 -48 74 -82 69 -89 -4 -7 -3 -9 4 -5 13 8 66
-59 58 -73 -4 -5 -1 -13 5 -17 8 -4 9 -3 5 4 -4 7 -5 12 -3 12 6 0 47 -69 47
-78 0 -4 -5 0 -10 8 -7 12 -9 10 -8 -7 1 -13 7 -19 15 -16 8 3 23 -15 39 -52
14 -31 33 -59 41 -62 23 -9 43 19 45 62 1 33 7 37 10 8 1 -5 8 -14 17 -21 12
-10 13 -12 1 -6 -8 4 -5 -3 7 -14 41 -40 58 -152 58 -390 0 -117 3 -203 7
-190 3 13 6 35 7 49 1 21 7 28 31 33 22 4 38 18 58 51 30 50 55 57 117 31 63
-27 92 -111 73 -216 -13 -73 -40 -123 -102 -188 -91 -97 -207 -162 -288 -162
-34 0 -34 4 -7 61 26 54 33 59 84 59 57 0 104 28 142 84 18 26 33 53 33 58 0
6 -16 26 -35 45 -19 19 -35 39 -35 43 0 16 18 20 46 10 19 -8 30 -8 38 0 7 7
2 10 -16 10 -14 0 -32 8 -39 17 -8 9 -9 14 -2 10 6 -4 17 -1 25 6 7 8 23 19
35 25 19 11 22 8 32 -26 10 -35 10 -33 6 22 -5 70 -15 84 -52 70 -19 -6 -36
-27 -57 -69 -25 -50 -30 -72 -31 -134 0 -82 0 -82 -84 -96 -31 -5 -42 -4 -37
4 10 15 46 147 46 163 -1 7 -16 -37 -35 -98 -57 -186 -118 -314 -198 -414 -20
-24 -33 -48 -30 -54 3 -5 2 -6 -4 -3 -5 3 -36 -21 -69 -54 -59 -60 -179 -139
-264 -173 -130 -52 -345 -52 -558 0 -163 40 -191 55 -338 176 -45 37 -85 64
-88 60 -4 -3 -4 1 -1 10 4 9 2 19 -4 22 -35 22 -182 291 -227 414 -13 37 -22
54 -18 37 4 -24 34 -105 60 -160 2 -6 -20 -10 -58 -9 -74 2 -90 16 -82 78 5
37 1 48 -41 111 -67 98 -78 109 -109 101 -14 -3 -32 -19 -39 -34 -18 -34 -33
-114 -18 -92 6 8 11 25 11 37 0 36 35 48 81 27 22 -9 39 -20 39 -24 0 -14 -49
-40 -77 -41 -19 -1 -22 -3 -10 -6 26 -7 63 4 83 24 16 16 18 16 36 -7 19 -24
19 -25 1 -40 -38 -30 -54 -65 -44 -92 23 -61 111 -96 193 -78 28 6 52 9 53 8
2 -2 12 -23 25 -47 28 -56 18 -66 -68 -66 -92 0 -175 40 -270 129 -38 37 -72
63 -74 59 -3 -4 -3 -2 -1 5 1 7 -4 27 -13 44 -15 30 -15 84 3 168 3 17 2 21
-4 12 -7 -9 -23 2 -61 42 -54 57 -61 78 -37 110 19 25 19 55 1 75 -13 14 -7
16 61 16 71 0 76 2 103 31 l28 32 5 -49 c3 -27 11 -57 17 -67 10 -14 10 -13 5
8 -4 14 -10 54 -13 89 l-7 64 -18 -37 c-30 -64 -97 -80 -210 -50 -135 35 -182
81 -173 170 2 28 16 74 29 101 24 47 42 65 152 157 105 87 99 173 -23 366 -23
35 -39 66 -37 68 2 2 32 -15 68 -37 69 -44 128 -103 165 -167 l23 -39 -5 75
c-5 92 -30 161 -96 265 -64 101 -77 144 -61 205 35 130 136 214 330 274 64 19
94 34 123 63 l38 37 0 -26 c0 -19 -14 -39 -51 -72 -28 -25 -55 -46 -61 -46 -5
0 -34 -23 -64 -51 -67 -64 -71 -95 -20 -134 18 -14 47 -27 64 -28 l31 -2 -21
-22 c-43 -45 -12 -28 35 20 26 27 44 46 38 43 -5 -3 -12 6 -15 19 -16 64 86
196 205 266 63 36 73 48 92 109 3 9 0 42 -5 75 -13 87 3 144 59 203 30 31 40
38 28 19 -12 -22 -15 -42 -10 -85 11 -103 15 -123 27 -116 7 5 9 2 5 -9 -3 -9
-2 -19 3 -22 6 -4 10 -2 10 4 0 5 3 17 7 27 4 11 3 15 -5 10 -6 -3 -16 3 -22
14 -6 11 -8 20 -5 20 3 0 7 0 10 0 3 0 4 -2 3 -4 -2 -1 12 -16 30 -31 18 -15
31 -34 28 -41 -3 -7 0 -16 6 -20 7 -5 8 -2 4 7 -4 8 15 -10 43 -39 40 -42 51
-61 57 -100 6 -41 3 -54 -24 -104 -39 -72 -33 -76 8 -5 20 36 30 66 30 95 0
39 6 50 55 101 30 32 84 74 119 95 35 21 71 45 79 54 16 19 31 96 17 87 -5 -3
-12 0 -16 6 -5 8 -3 9 6 4 8 -5 11 -3 8 6 -3 8 -11 13 -17 11 -7 -1 -10 2 -6
8 3 6 12 7 18 3 7 -4 18 -8 26 -8 16 0 28 -25 13 -25 -6 0 -12 6 -15 13 -2 6
-4 0 -3 -14 1 -17 6 -25 14 -22 6 3 12 10 12 15 0 6 6 5 15 -2 9 -7 15 -8 15
-2 0 16 -91 93 -135 113 -23 11 -63 19 -93 19 -42 0 -112 21 -112 33 0 1 21 3
48 4 26 1 72 11 102 22 83 31 166 24 261 -22z m-1384 -137 c11 -21 9 -28 -9
-47 -26 -28 -33 -28 -58 -5 -21 20 -17 62 6 62 8 0 14 5 14 11 0 19 34 4 47
-21z m2466 -39 c-4 -17 -8 -18 -24 -8 -18 11 -18 12 -1 19 27 11 30 9 25 -11z
m-2503 -55 c0 -3 -4 -8 -10 -11 -5 -3 -10 -1 -10 4 0 6 5 11 10 11 6 0 10 -2
10 -4z m50 -6 c0 -9 -31 -30 -45 -30 -3 0 -1 9 5 20 11 20 40 28 40 10z m-194
-192 c-12 -7 -21 -7 -28 0 -6 6 0 10 18 10 23 0 24 -2 10 -10z m404 -69 c0 -5
-4 -7 -10 -4 -5 3 -10 1 -10 -6 0 -7 -3 -10 -6 -6 -8 7 4 27 17 27 5 0 9 -5 9
-11z m2483 -84 c-3 -9 -8 -14 -10 -11 -3 3 -2 9 2 15 9 16 15 13 8 -4z m-43
-25 c-6 -11 -13 -20 -16 -20 -2 0 0 9 6 20 6 11 13 20 16 20 2 0 0 -9 -6 -20z
m-43 -42 c-3 -8 -6 -5 -6 6 -1 11 2 17 5 13 3 -3 4 -12 1 -19z m308 -48 c3 -5
2 -10 -4 -10 -5 0 -13 5 -16 10 -3 6 -2 10 4 10 5 0 13 -4 16 -10z m25 -124
c0 -3 -4 -8 -10 -11 -5 -3 -10 -1 -10 4 0 6 5 11 10 11 6 0 10 -2 10 -4z
m-1146 -434 c3 -5 -1 -9 -9 -9 -8 0 -12 4 -9 9 3 4 7 8 9 8 2 0 6 -4 9 -8z
m61 -86 c0 -14 -3 -22 -7 -20 -4 3 -7 16 -6 29 3 30 11 23 13 -9z m1332 18
c-3 -3 -12 -4 -19 -1 -8 3 -5 6 6 6 11 1 17 -2 13 -5z m-3221 -138 c20 -21 17
-28 -6 -14 -11 7 -20 16 -20 20 0 12 10 9 26 -6z m-100 -815 c-3 -5 1 -12 10
-15 12 -5 15 -2 10 11 -4 10 -4 14 0 10 4 -4 13 1 20 11 11 15 12 13 5 -13 -8
-33 -45 -44 -56 -18 -4 12 -9 10 -26 -8 l-21 -24 21 32 c12 17 21 37 21 45 1
8 4 7 11 -5 5 -9 8 -21 5 -26z m99 -41 c-3 -4 2 -10 10 -14 8 -3 17 -1 20 4 4
6 1 10 -5 10 -6 0 -8 5 -4 11 10 17 20 -4 19 -43 0 -32 -2 -33 -42 -35 -48 -2
-51 2 -26 29 15 17 15 20 3 28 -11 7 -12 10 -2 10 7 0 10 4 7 10 -3 6 1 7 9 4
9 -3 14 -10 11 -14z m2363 -94 c3 -37 -64 -105 -113 -116 -55 -13 -98 -12 -90
0 4 6 15 8 25 5 10 -3 22 0 26 6 4 8 3 9 -4 5 -7 -4 -12 -1 -12 8 0 10 6 13
15 10 8 -4 15 -2 15 4 0 5 18 12 40 16 42 7 65 32 53 62 -4 10 -2 15 3 11 6
-3 16 -2 24 4 8 5 15 9 15 9 0 0 2 -11 3 -24z m-2332 -13 c-7 -7 -26 7 -26 19
0 6 6 6 15 -2 9 -7 13 -15 11 -17z m-69 -9 c-3 -3 -12 -4 -19 -1 -8 3 -5 6 6
6 11 1 17 -2 13 -5z m299 -23 c-7 -11 19 -33 28 -23 4 4 7 3 6 -3 -10 -49 24
-85 83 -85 34 -1 39 -3 24 -11 -35 -20 -150 23 -162 62 -8 25 2 69 16 69 6 0
8 -4 5 -9z m-336 -45 c0 -2 -7 -7 -16 -10 -8 -3 -12 -2 -9 4 6 10 25 14 25 6z
m87 -92 c-3 -3 -12 -4 -19 -1 -8 3 -5 6 6 6 11 1 17 -2 13 -5z m4 -107 c-10
-9 -11 -8 -5 6 3 10 9 15 12 12 3 -3 0 -11 -7 -18z m2008 -165 c7 -14 6 -19
-3 -19 -6 0 -13 9 -13 19 -1 10 0 18 2 18 2 0 9 -8 14 -18z m-1374 -42 c3 -6
-1 -7 -9 -4 -18 7 -21 14 -7 14 6 0 13 -4 16 -10z m-90 -18 c-3 -3 -11 0 -18
7 -9 10 -8 11 6 5 10 -3 15 -9 12 -12z m64 -25 c8 -11 8 -16 2 -12 -6 3 -11 1
-11 -6 0 -8 -4 -8 -15 1 -8 7 -24 10 -34 7 -14 -3 -18 -1 -14 10 3 8 12 12 19
9 8 -3 14 -2 14 3 0 15 27 7 39 -12z m1368 -9 c-3 -8 -6 -5 -6 6 -1 11 2 17 5
13 3 -3 4 -12 1 -19z m463 -142 c0 -3 -4 -8 -10 -11 -5 -3 -10 -1 -10 4 0 6 5
11 10 11 6 0 10 -2 10 -4z m134 -21 c4 -12 -3 -15 -37 -13 -37 1 -38 2 -9 5
17 2 32 8 32 14 0 14 7 11 14 -6z m-1641 -14 c77 -27 104 -43 57 -34 -19 3
-43 10 -53 15 -15 8 -18 6 -15 -9 2 -12 -3 -18 -14 -17 -10 1 -18 -5 -18 -13
0 -8 4 -12 9 -9 16 10 20 -21 5 -42 -8 -11 -10 -23 -5 -26 4 -3 7 -17 5 -31
-1 -17 2 -25 9 -22 7 3 11 10 9 16 -1 7 2 10 8 6 6 -3 8 -11 4 -16 -3 -5 0
-18 7 -27 11 -14 11 -15 -1 -4 -8 6 -18 12 -24 12 -5 0 -1 -6 9 -14 11 -8 25
-11 32 -9 8 3 13 0 11 -8 -2 -8 3 -13 11 -11 7 1 19 -2 26 -8 9 -8 15 -8 20 0
4 7 12 7 25 0 27 -14 34 -12 20 5 -15 17 -50 20 -50 4 0 -8 -4 -8 -15 1 -8 6
-20 8 -27 4 -7 -4 -9 -3 -5 2 14 15 87 14 112 -2 19 -12 52 -14 184 -12 135 3
161 1 161 -12 0 -11 3 -11 12 -2 7 7 20 12 30 12 10 0 31 7 46 16 l27 16 -24
-21 c-13 -12 -29 -21 -37 -21 -8 0 -14 -4 -14 -9 0 -31 150 72 176 121 11 21
13 19 19 -27 10 -76 34 -155 61 -204 22 -41 23 -46 9 -67 -8 -13 -37 -41 -64
-61 -99 -77 -105 -83 -56 -52 28 17 75 56 106 86 46 45 58 52 67 40 12 -14
-13 -43 -98 -111 -26 -21 -156 -106 -163 -106 -2 0 -48 -27 -102 -59 -54 -33
-104 -57 -112 -54 -20 8 -7 21 50 49 79 40 186 105 194 118 4 6 -5 3 -20 -7
-194 -127 -295 -157 -380 -115 -22 11 -41 17 -44 14 -3 -2 18 -14 46 -27 28
-12 51 -25 51 -30 0 -5 -3 -9 -6 -9 -12 0 -183 74 -259 112 -141 70 -295 177
-295 204 0 21 5 19 78 -40 63 -50 162 -113 162 -103 0 2 -26 20 -57 40 -32 20
-79 53 -105 75 l-46 39 29 30 c50 54 88 124 113 208 34 112 50 190 43 209 -8
20 -2 20 66 -3z m-83 -36 c0 -8 -10 -56 -22 -105 -21 -87 -27 -97 -61 -91 -5
1 -25 -3 -44 -8 -24 -7 -42 -7 -55 0 -13 7 -18 7 -16 -2 4 -14 -22 -21 -84
-23 -39 -1 -44 -3 -35 -15 10 -12 9 -12 -10 -2 -19 10 -22 9 -17 -4 5 -11 0
-15 -17 -15 -49 0 -160 -75 -152 -102 2 -4 -7 -5 -19 -3 -13 3 -31 -4 -45 -17
-21 -19 -21 -22 -7 -52 l15 -31 -20 25 -19 24 -4 -26 -3 -26 -33 18 -33 18 31
34 30 33 -6 -30 -6 -30 32 38 c17 20 37 37 43 37 15 1 66 39 51 40 -5 0 -32
-14 -59 -31 -33 -21 -50 -27 -55 -19 -5 8 -19 -2 -41 -27 l-34 -38 -102 3
-102 4 18 37 c26 50 76 98 135 128 28 14 62 38 78 53 15 16 45 34 65 41 21 6
54 24 73 39 61 48 100 62 184 67 54 4 89 12 106 23 39 28 112 45 203 49 27 1
37 -3 37 -14z m277 -21 c-3 -3 -12 -4 -19 -1 -8 3 -5 6 6 6 11 1 17 -2 13 -5z
m66 -21 c-7 -2 -21 -2 -30 0 -10 3 -4 5 12 5 17 0 24 -2 18 -5z m-523 -188
c-7 -9 -15 -13 -17 -11 -7 7 7 26 19 26 6 0 6 -6 -2 -15z m1235 -115 c3 -6 -1
-7 -9 -4 -18 7 -21 14 -7 14 6 0 13 -4 16 -10z m-1601 -51 c-3 -5 -10 -7 -15
-4 -5 4 -9 1 -9 -4 0 -6 -5 -11 -12 -11 -6 0 -3 8 7 20 17 19 41 18 29 -1z
m429 -115 c92 -67 351 -199 445 -229 21 -6 23 -11 17 -48 -4 -23 -9 -44 -11
-46 -1 -2 -15 6 -30 18 -14 11 -31 18 -36 15 -5 -3 -20 2 -34 11 -14 9 -28 14
-32 11 -6 -7 -8 -5 38 -35 28 -18 30 -21 10 -15 -14 3 -53 26 -88 51 -34 24
-81 53 -105 63 -51 23 -202 54 -361 74 -108 14 -121 18 -149 46 -17 16 -27 33
-23 37 4 4 11 1 17 -7 6 -10 7 -5 3 16 l-6 31 61 6 c38 3 84 17 123 35 35 17
64 31 66 31 2 1 44 -29 95 -65z m-353 -24 c0 -5 -2 -10 -4 -10 -3 0 -8 5 -11
10 -3 6 -1 10 4 10 6 0 11 -4 11 -10z m880 -195 c0 -14 -4 -25 -10 -25 -5 0
-10 11 -10 25 0 14 5 25 10 25 6 0 10 -11 10 -25z"/>
<path d="M3180 4210 c-12 -7 -10 -9 7 -7 12 0 19 5 17 9 -6 10 -6 10 -24 -2z"/>
<path d="M3145 4199 c-4 -6 -5 -12 -2 -15 2 -3 7 2 10 11 7 17 1 20 -8 4z"/>
<path d="M3105 4170 c-3 -6 1 -7 9 -4 18 7 21 14 7 14 -6 0 -13 -4 -16 -10z"/>
<path d="M3084 4128 l-19 -23 23 19 c12 11 22 21 22 23 0 8 -8 2 -26 -19z"/>
<path d="M2130 4102 c0 -5 7 -9 15 -9 8 0 12 4 9 9 -3 4 -9 8 -15 8 -5 0 -9
-4 -9 -8z"/>
<path d="M2861 4018 c-1 -17 34 -45 83 -66 51 -22 38 -6 -15 17 -28 13 -54 33
-59 45 -7 16 -9 17 -9 4z"/>
<path d="M3015 3925 c17 -9 52 -39 79 -68 43 -47 45 -48 16 -9 -36 48 -89 92
-111 92 -8 0 0 -7 16 -15z"/>
<path d="M2588 3923 c12 -2 30 -2 40 0 9 3 -1 5 -23 4 -22 0 -30 -2 -17 -4z"/>
<path d="M2670 3916 c0 -2 7 -7 16 -10 8 -3 12 -2 9 4 -6 10 -25 14 -25 6z"/>
<path d="M2710 3897 c0 -2 15 -16 33 -33 l32 -29 -29 33 c-28 30 -36 37 -36
29z"/>
<path d="M2419 3853 l-34 -38 38 34 c34 33 42 41 34 41 -2 0 -19 -17 -38 -37z"/>
<path d="M2184 3785 c-9 -14 -15 -27 -13 -30 3 -2 12 10 21 26 21 36 15 39 -8
4z"/>
<path d="M3140 3796 c0 -2 8 -10 18 -17 15 -13 16 -12 3 4 -13 16 -21 21 -21
13z"/>
<path d="M3769 3765 c9 -18 17 -31 19 -30 7 6 -11 54 -22 58 -9 4 -8 -5 3 -28z"/>
<path d="M2790 3781 c0 -6 4 -13 10 -16 6 -3 7 1 4 9 -7 18 -14 21 -14 7z"/>
<path d="M2162 3720 c0 -14 2 -19 5 -12 2 6 2 18 0 25 -3 6 -5 1 -5 -13z"/>
<path d="M1878 3723 c12 -2 32 -2 45 0 12 2 2 4 -23 4 -25 0 -35 -2 -22 -4z"/>
<path d="M2353 3695 c0 -22 2 -30 4 -17 2 12 2 30 0 40 -3 9 -5 -1 -4 -23z"/>
<path d="M1808 3713 c7 -3 16 -2 19 1 4 3 -2 6 -13 5 -11 0 -14 -3 -6 -6z"/>
<path d="M2585 3701 c36 -8 61 -47 51 -84 -6 -27 -77 -77 -109 -77 -10 0 -17
-4 -17 -9 0 -15 60 8 98 37 18 13 35 35 38 48 12 48 -20 95 -64 93 -27 -1 -27
-1 3 -8z"/>
<path d="M2030 3696 c0 -2 8 -10 18 -17 15 -13 16 -12 3 4 -13 16 -21 21 -21
13z"/>
<path d="M2902 3680 c-18 -11 -35 -27 -39 -36 -5 -13 -8 -13 -15 -2 -7 9 -8 8
-4 -5 3 -10 6 -24 6 -30 1 -7 7 3 15 21 10 22 28 39 57 52 24 11 36 20 28 20
-8 0 -30 -9 -48 -20z"/>
<path d="M2170 3685 c0 -5 5 -17 10 -25 5 -8 10 -10 10 -5 0 6 -5 17 -10 25
-5 8 -10 11 -10 5z"/>
<path d="M3020 3686 c0 -2 8 -10 18 -17 15 -13 16 -12 3 4 -13 16 -21 21 -21
13z"/>
<path d="M3211 3644 c0 -11 3 -14 6 -6 3 7 2 16 -1 19 -3 4 -6 -2 -5 -13z"/>
<path d="M2370 3624 c0 -6 17 -26 38 -45 l37 -34 -35 40 c-19 22 -36 42 -37
44 -2 2 -3 0 -3 -5z"/>
<path d="M3286 3613 c-6 -14 -5 -15 5 -6 7 7 10 15 7 18 -3 3 -9 -2 -12 -12z"/>
<path d="M3029 3603 c-13 -16 -12 -17 4 -4 16 13 21 21 13 21 -2 0 -10 -8 -17
-17z"/>
<path d="M1872 3590 c-18 -29 -15 -38 4 -12 9 13 14 25 12 27 -2 2 -9 -5 -16
-15z"/>
<path d="M3169 3553 l-24 -28 28 24 c25 23 32 31 24 31 -2 0 -14 -12 -28 -27z"/>
<path d="M3250 3550 c-6 -11 -8 -20 -6 -20 3 0 10 9 16 20 6 11 8 20 6 20 -3
0 -10 -9 -16 -20z"/>
<path d="M1590 3540 c-6 -11 -8 -20 -6 -20 3 0 10 9 16 20 6 11 8 20 6 20 -3
0 -10 -9 -16 -20z"/>
<path d="M1860 3539 c0 -26 34 -49 71 -48 l34 2 -40 6 c-29 4 -43 13 -52 31
-8 16 -13 19 -13 9z"/>
<path d="M3220 3500 c-6 -11 -8 -20 -6 -20 3 0 10 9 16 20 6 11 8 20 6 20 -3
0 -10 -9 -16 -20z"/>
<path d="M1556 3475 c-9 -26 -7 -32 5 -12 6 10 9 21 6 23 -2 3 -7 -2 -11 -11z"/>
<path d="M3061 3481 c-7 -5 -12 -14 -10 -20 2 -6 10 -2 17 9 14 22 13 23 -7
11z"/>
<path d="M2880 3476 c0 -2 8 -10 18 -17 15 -13 16 -12 3 4 -13 16 -21 21 -21
13z"/>
<path d="M2330 3430 c0 -23 -7 -33 -31 -45 -25 -14 -33 -14 -47 -3 -15 11 -16
11 -4 -4 10 -12 10 -18 1 -23 -6 -4 -15 -2 -19 5 -5 9 -9 9 -14 1 -4 -6 -2
-11 4 -11 6 0 8 -5 4 -11 -4 -8 -9 -8 -17 0 -6 6 -18 11 -26 10 -12 0 -11 -2
3 -8 17 -7 17 -9 -6 -36 -17 -19 -27 -25 -32 -16 -5 7 -2 10 6 9 7 -2 12 3 10
10 -1 8 2 11 9 6 8 -4 9 -3 5 4 -4 7 -9 12 -11 12 -9 0 -45 -44 -45 -54 0 -6
4 -5 9 3 6 9 11 10 15 2 4 -6 -4 -13 -19 -17 -15 -4 -28 -15 -31 -30 -3 -13
-10 -22 -14 -19 -8 5 -38 -25 -32 -32 5 -6 -14 -35 -24 -36 -5 -1 -8 -5 -6 -9
1 -5 -2 -8 -7 -8 -14 0 -126 -158 -161 -227 -31 -61 -49 -140 -29 -128 6 4 8
13 5 21 -3 8 0 13 7 11 8 -1 12 11 11 34 0 28 4 35 20 37 17 1 18 -1 6 -9 -11
-8 -12 -12 -2 -16 6 -2 12 -9 12 -15 0 -6 -6 -6 -15 2 -9 8 -15 8 -15 2 0 -6
5 -12 11 -14 5 -2 7 -11 4 -21 -4 -9 -11 -14 -17 -11 -5 3 -4 -3 3 -14 11 -18
15 -11 40 62 41 123 96 224 181 332 26 34 44 65 40 69 -4 5 -2 5 4 2 7 -4 27
7 45 24 36 33 147 109 159 109 4 0 10 -19 14 -42 9 -56 38 -121 76 -168 57
-72 239 -192 287 -189 10 0 3 5 -15 10 -18 5 -30 14 -27 20 4 5 3 9 -2 8 -21
-4 -34 2 -27 13 4 7 3 8 -5 4 -13 -9 -64 21 -57 33 3 4 -5 7 -17 7 -15 -1 -22
4 -21 17 1 13 -3 16 -16 12 -12 -4 -30 8 -57 38 -51 56 -67 84 -48 84 8 0 12
-4 9 -9 -3 -4 6 -20 20 -35 15 -15 26 -24 26 -20 0 5 12 -5 26 -20 l26 -28
-22 33 c-12 17 -29 32 -38 32 -15 0 -15 2 -2 10 13 8 12 10 -3 10 -10 0 -16 3
-14 8 7 11 -69 113 -78 104 -4 -4 -3 3 4 15 13 26 15 44 1 23 -14 -23 -24 12
-17 65 2 25 1 45 -4 45 -5 0 -9 -13 -9 -30z m60 -180 c0 -8 -7 -2 -15 14 -19
36 -19 45 0 20 8 -10 14 -26 15 -34z m-427 -205 c-3 -9 -8 -14 -10 -11 -3 3
-2 9 2 15 9 16 15 13 8 -4z m-53 -113 c0 -5 -7 -17 -15 -28 -14 -18 -14 -17
-4 9 12 27 19 34 19 19z"/>
<path d="M2938 3443 c12 -2 30 -2 40 0 9 3 -1 5 -23 4 -22 0 -30 -2 -17 -4z"/>
<path d="M3358 3413 c-32 -35 -48 -66 -48 -93 0 -14 -4 -19 -12 -14 -7 4 0 -7
16 -24 17 -18 34 -32 40 -32 6 0 0 7 -12 16 -39 27 -28 89 26 147 14 15 23 27
21 27 -3 0 -17 -12 -31 -27z"/>
<path d="M2694 3416 c-15 -17 -29 -81 -16 -72 5 3 18 -6 27 -20 9 -15 12 -24
7 -20 -6 3 -13 2 -16 -3 -3 -4 4 -8 16 -7 11 0 26 -8 32 -18 6 -11 24 -31 39
-44 18 -16 27 -32 24 -43 -3 -11 0 -16 8 -13 7 3 16 0 21 -7 5 -8 3 -10 -6 -4
-9 6 -11 4 -6 -4 5 -7 11 -10 14 -7 9 9 32 -15 25 -27 -3 -5 -2 -7 4 -4 5 3
27 -12 49 -34 61 -63 128 -101 178 -103 24 -1 42 3 39 7 -3 5 -18 6 -34 3 -23
-4 -27 -2 -23 12 5 14 4 14 -4 2 -9 -11 -24 0 -82 60 -38 41 -75 74 -80 73 -6
-2 -9 1 -7 5 1 5 -13 24 -32 44 -18 20 -46 57 -61 82 -14 26 -29 44 -32 40 -3
-3 -6 1 -5 8 2 47 -4 82 -12 69 -7 -11 -9 -11 -14 0 -5 13 -11 -24 -8 -44 1
-5 -3 -6 -8 -2 -6 3 -7 13 -4 22 4 11 3 14 -5 9 -7 -4 -12 -2 -12 4 0 6 -4 8
-10 5 -14 -9 -13 8 2 23 6 6 10 14 7 16 -2 2 -9 -2 -15 -8z m281 -346 c3 -6
-1 -7 -9 -4 -18 7 -21 14 -7 14 6 0 13 -4 16 -10z"/>
<path d="M1541 3404 c0 -11 3 -14 6 -6 3 7 2 16 -1 19 -3 4 -6 -2 -5 -13z"/>
<path d="M3073 3380 c0 -25 2 -35 4 -22 2 12 2 32 0 45 -2 12 -4 2 -4 -23z"/>
<path d="M1740 3300 c-18 -27 -44 -59 -58 -70 -21 -17 -22 -19 -5 -10 21 10
51 45 88 103 9 15 15 27 12 27 -3 0 -19 -22 -37 -50z"/>
<path d="M1542 3320 c0 -14 2 -19 5 -12 2 6 2 18 0 25 -3 6 -5 1 -5 -13z"/>
<path d="M3456 3323 c-6 -14 -5 -15 5 -6 7 7 10 15 7 18 -3 3 -9 -2 -12 -12z"/>
<path d="M1905 3319 c-4 -6 -5 -12 -2 -15 2 -3 7 2 10 11 7 17 1 20 -8 4z"/>
<path d="M2661 3314 c0 -11 3 -14 6 -6 3 7 2 16 -1 19 -3 4 -6 -2 -5 -13z"/>
<path d="M2653 3240 c0 -30 2 -43 4 -27 2 15 2 39 0 55 -2 15 -4 2 -4 -28z"/>
<path d="M2725 3261 c-3 -5 -2 -12 3 -15 5 -3 9 1 9 9 0 17 -3 19 -12 6z"/>
<path d="M3428 3233 c6 -2 18 -2 25 0 6 3 1 5 -13 5 -14 0 -19 -2 -12 -5z"/>
<path d="M3654 3178 l-19 -23 23 19 c21 18 27 26 19 26 -2 0 -12 -10 -23 -22z"/>
<path d="M1553 3183 c9 -2 25 -2 35 0 9 3 1 5 -18 5 -19 0 -27 -2 -17 -5z"/>
<path d="M3256 3180 c11 -21 75 -113 88 -125 5 -5 2 2 -7 18 l-17 27 42 1 c24
0 66 4 93 9 36 6 25 7 -41 3 -101 -6 -123 -1 -102 25 11 13 11 14 -1 8 -9 -6
-21 1 -38 20 -13 16 -21 22 -17 14z"/>
<path d="M1488 3173 c7 -3 16 -2 19 1 4 3 -2 6 -13 5 -11 0 -14 -3 -6 -6z"/>
<path d="M1841 3167 c-6 -8 -7 -18 -3 -22 4 -5 0 -6 -8 -3 -12 5 -16 -1 -14
-24 2 -29 2 -29 -19 -11 l-21 18 17 -27 c20 -32 22 -47 5 -30 -15 15 -29 15
-25 0 1 -7 -2 -13 -8 -13 -5 -1 -17 -4 -25 -8 -8 -3 -53 -13 -100 -21 l-85
-16 70 7 c98 9 110 9 113 1 14 -32 19 -69 11 -74 -5 -3 -7 -14 -4 -25 4 -10 2
-19 -3 -19 -5 0 -12 -8 -15 -17 -2 -10 -8 -27 -13 -37 -5 -14 -4 -17 4 -12 8
5 12 0 12 -14 0 -12 -4 -18 -10 -15 -6 4 -7 -1 -3 -12 6 -16 5 -17 -13 -4 -18
14 -18 14 -3 -3 15 -16 15 -23 -7 -86 -32 -95 -47 -219 -39 -316 4 -55 3 -84
-4 -89 -6 -3 -11 -12 -11 -18 0 -7 4 -6 10 3 8 12 10 10 11 -10 2 -43 -2 -65
-15 -75 -10 -7 -10 -13 -2 -21 23 -23 33 58 28 220 -4 141 -2 165 18 241 23
84 49 139 50 104 0 -9 7 -22 15 -29 12 -10 12 -8 -1 19 -14 28 -18 164 -4 156
3 -2 28 64 57 146 28 82 50 149 48 149 -1 0 -8 -6 -14 -13z"/>
<path d="M3030 3149 c1 -19 8 -47 16 -64 8 -16 11 -21 8 -10 -4 11 -8 37 -9
58 -3 48 -15 62 -15 16z"/>
<path d="M2678 3135 c6 -11 21 -29 34 -40 22 -19 22 -19 -2 10 -40 48 -43 51
-32 30z"/>
<path d="M3711 3130 c0 -14 7 -36 15 -50 10 -17 13 -18 8 -5 -3 11 -10 34 -14
50 -7 27 -8 28 -9 5z"/>
<path d="M3530 3130 c-20 -6 -21 -8 -5 -8 11 0 29 3 40 8 25 11 -1 11 -35 0z"/>
<path d="M1460 3094 c0 -15 64 -74 80 -74 8 0 1 9 -16 19 -18 11 -39 30 -48
42 -9 13 -16 19 -16 13z"/>
<path d="M2730 3066 c0 -2 8 -10 18 -17 15 -13 16 -12 3 4 -13 16 -21 21 -21
13z"/>
<path d="M3687 3015 c-15 -14 -27 -29 -27 -32 0 -4 14 6 30 22 28 26 34 35 27
35 -1 0 -15 -11 -30 -25z"/>
<path d="M3836 3020 c6 -8 16 -24 22 -35 6 -11 12 -15 12 -8 0 7 -10 22 -22
35 -13 13 -18 17 -12 8z"/>
<path d="M1422 3005 c0 -16 2 -22 5 -12 2 9 2 23 0 30 -3 6 -5 -1 -5 -18z"/>
<path d="M2761 3014 c0 -11 3 -14 6 -6 3 7 2 16 -1 19 -3 4 -6 -2 -5 -13z"/>
<path d="M2051 3007 c8 -10 151 -58 156 -53 2 2 -26 14 -64 26 -37 13 -75 25
-83 28 -8 3 -12 2 -9 -1z"/>
<path d="M2385 3000 c-16 -6 -13 -8 13 -7 18 0 41 -8 52 -18 17 -16 20 -16 15
-3 -8 21 -54 37 -80 28z"/>
<path d="M2012 2988 c-7 -7 -12 -17 -12 -24 0 -22 342 -134 408 -134 32 0 67
31 59 52 -4 9 -6 8 -6 -3 -1 -24 -44 -42 -82 -34 -82 17 -352 105 -367 120 -2
1 4 10 13 19 9 9 13 16 8 16 -5 0 -14 -5 -21 -12z"/>
<path d="M3020 2970 c-18 -12 -2 -12 25 0 13 6 15 9 5 9 -8 0 -22 -4 -30 -9z"/>
<path d="M3153 2966 c6 -14 3 -17 -8 -12 -9 3 -14 2 -11 -2 3 -4 -16 -14 -42
-22 -26 -7 -94 -28 -152 -47 -112 -35 -158 -41 -179 -20 -10 10 -11 9 -6 -5
12 -32 57 -28 195 17 58 19 131 42 163 50 55 16 72 35 45 51 -8 5 -9 2 -5 -10z"/>
<path d="M1396 2942 l-19 -27 24 22 c12 12 21 24 18 27 -2 2 -13 -8 -23 -22z"/>
<path d="M2331 2943 c0 -13 -7 -23 -13 -24 -7 0 -4 -4 7 -9 29 -13 39 -12 27
3 -5 6 -12 21 -15 32 -4 18 -5 18 -6 -2z"/>
<path d="M2960 2950 c-18 -12 -2 -12 25 0 13 6 15 9 5 9 -8 0 -22 -4 -30 -9z"/>
<path d="M3652 2930 c-1 -19 2 -40 6 -47 11 -18 58 -26 79 -14 15 10 14 10 -9
5 -40 -9 -66 10 -71 54 l-4 37 -1 -35z"/>
<path d="M3872 2940 c0 -14 2 -19 5 -12 2 6 2 18 0 25 -3 6 -5 1 -5 -13z"/>
<path d="M2472 2930 c0 -14 2 -19 5 -12 2 6 2 18 0 25 -3 6 -5 1 -5 -13z"/>
<path d="M2848 2926 c-3 -16 -1 -23 7 -19 7 2 11 13 8 24 -7 25 -10 24 -15 -5z"/>
<path d="M2895 2930 c-13 -6 -15 -9 -5 -9 8 0 22 4 30 9 18 12 2 12 -25 0z"/>
<path d="M2741 2894 c0 -11 3 -14 6 -6 3 7 2 16 -1 19 -3 4 -6 -2 -5 -13z"/>
<path d="M3882 2885 c0 -16 2 -22 5 -12 2 9 2 23 0 30 -3 6 -5 -1 -5 -18z"/>
<path d="M2545 2826 c-38 -41 -65 -95 -64 -128 1 -19 2 -18 8 8 19 78 82 151
121 139 27 -9 66 -64 84 -121 16 -47 16 -47 10 -9 -7 47 -35 96 -71 125 -35
28 -51 25 -88 -14z"/>
<path d="M3865 2830 c-7 -23 -104 -90 -129 -90 -8 0 -18 -5 -21 -10 -5 -8 -11
-7 -21 1 -12 10 -12 14 -2 20 7 5 9 9 3 9 -17 0 -32 -14 -38 -35 -3 -11 -4 7
-1 40 3 42 1 54 -5 40 -11 -24 -14 -138 -3 -133 7 4 31 18 135 79 60 36 107
82 95 95 -4 3 -9 -4 -13 -16z m-175 -110 c0 -5 -5 -10 -11 -10 -5 0 -7 5 -4
10 3 6 8 10 11 10 2 0 4 -4 4 -10z"/>
<path d="M1418 2833 c7 -3 16 -2 19 1 4 3 -2 6 -13 5 -11 0 -14 -3 -6 -6z"/>
<path d="M1451 2837 c2 -1 13 -9 24 -17 19 -14 19 -14 6 3 -7 9 -18 17 -24 17
-6 0 -8 -1 -6 -3z"/>
<path d="M3284 2819 c-8 -14 14 -19 25 -6 8 10 7 14 -5 14 -8 0 -17 -4 -20 -8z"/>
<path d="M1334 2788 l-29 -33 33 29 c17 17 32 31 32 33 0 8 -8 1 -36 -29z"/>
<path d="M1492 2745 c-1 -27 -4 -68 -7 -90 l-5 -40 11 40 c5 22 8 63 6 90 l-3
50 -2 -50z"/>
<path d="M2974 2766 c-33 -15 -74 -60 -74 -82 0 -21 9 -17 51 21 32 29 47 35
82 35 45 0 95 -28 124 -69 8 -12 23 -21 34 -21 19 0 18 4 -11 44 -55 76 -133
103 -206 72z"/>
<path d="M1833 2758 c-12 -15 -24 -48 -18 -48 2 0 10 14 19 30 15 32 15 38 -1
18z"/>
<path d="M2115 2741 c-17 -10 -50 -41 -74 -69 -51 -61 -51 -94 0 -42 71 73 99
90 146 90 50 0 75 -11 115 -48 15 -14 31 -23 34 -19 9 9 -48 85 -74 96 -36 17
-114 13 -147 -8z"/>
<path d="M1290 2731 c-14 -28 -13 -54 5 -77 14 -18 14 -17 3 9 -9 21 -9 36 -1
58 13 33 9 39 -7 10z"/>
<path d="M1846 2735 c-9 -26 -7 -32 5 -12 6 10 9 21 6 23 -2 3 -7 -2 -11 -11z"/>
<path d="M1675 2720 c3 -5 8 -10 11 -10 2 0 4 5 4 10 0 6 -5 10 -11 10 -5 0
-7 -4 -4 -10z"/>
<path d="M1810 2684 c-17 -9 -20 -14 -9 -14 9 0 22 7 29 15 15 18 13 18 -20
-1z"/>
<path d="M2515 2690 c-8 -12 20 -24 35 -15 6 3 8 11 5 16 -8 12 -32 12 -40 -1z"/>
<path d="M2630 2683 c0 -9 8 -13 23 -11 27 4 25 23 -3 24 -11 1 -20 -5 -20
-13z"/>
<path d="M1334 2628 c10 -6 22 -6 26 -2 5 5 -3 10 -18 11 -22 1 -24 0 -8 -9z"/>
<path d="M3654 2525 c0 -55 1 -76 3 -47 2 29 2 74 0 100 -2 26 -3 2 -3 -53z"/>
<path d="M1466 2585 c-3 -9 -6 -22 -5 -28 0 -7 5 -1 10 12 5 13 8 26 5 28 -2
2 -6 -3 -10 -12z"/>
<path d="M2910 2580 c19 -11 46 -19 60 -19 17 0 6 6 -30 19 -67 25 -75 25 -30
0z"/>
<path d="M3021 2583 c0 -12 -7 -24 -13 -26 -8 -3 -6 -6 5 -6 11 -1 17 -9 17
-26 0 -14 4 -25 9 -25 4 0 6 11 3 25 l-5 26 74 -3 c68 -3 74 -5 81 -28 8 -25
8 -25 4 2 -3 24 1 27 33 33 20 3 43 11 51 16 11 8 9 9 -10 5 -74 -18 -80 -19
-80 -3 0 9 -4 18 -9 21 -5 4 -7 -3 -4 -14 5 -19 0 -20 -70 -20 -70 0 -76 2
-80 23 -4 22 -4 22 -6 0z"/>
<path d="M2477 2488 c-74 -8 -116 -20 -307 -86 -107 -37 -218 -56 -281 -48
-37 5 -49 3 -49 -6 1 -78 46 -309 80 -411 69 -206 123 -292 232 -373 85 -63
234 -114 323 -112 34 0 31 2 -20 9 -109 16 -275 76 -275 100 0 17 161 89 243
109 105 25 322 44 410 35 77 -7 146 -26 225 -61 53 -23 54 -25 38 -43 -53 -58
-220 -117 -386 -136 -73 -8 -97 -13 -65 -14 113 -2 263 33 373 87 132 65 251
238 301 442 23 96 54 293 49 318 -2 10 -13 -46 -25 -123 -12 -78 -26 -153 -32
-167 -14 -37 -55 -63 -78 -49 -16 9 -16 10 5 11 12 0 22 4 22 9 0 5 -8 8 -17
7 -10 0 -18 4 -18 9 0 6 -4 15 -8 22 -5 7 -1 9 12 6 10 -3 22 0 25 6 5 7 0 9
-11 5 -10 -3 -6 2 9 12 26 18 36 56 11 47 -7 -3 -10 -9 -7 -14 3 -5 0 -9 -5
-9 -20 0 -11 27 12 38 12 6 16 11 9 11 -7 1 -22 -4 -33 -9 -13 -7 -19 -7 -19
0 0 5 5 10 10 10 6 0 20 9 32 20 21 19 21 19 -48 13 -69 -5 -69 -5 -114 32
-142 120 -428 154 -705 84 -102 -26 -201 -78 -268 -141 -54 -50 -95 -68 -161
-68 l-39 0 26 -24 c25 -23 72 -32 83 -15 8 14 34 10 34 -5 0 -23 -25 -36 -80
-43 -51 -6 -52 -6 -31 -22 29 -22 72 -25 107 -7 15 8 32 12 37 9 14 -9 -45
-43 -75 -43 -16 0 -28 -4 -28 -10 0 -5 5 -10 12 -10 6 0 9 -3 6 -6 -3 -3 -21
1 -40 9 -29 12 -38 24 -53 68 -29 91 -43 150 -54 239 -6 47 -13 99 -16 115
l-5 30 88 0 c96 1 162 16 307 70 149 56 219 68 370 62 80 -3 166 -13 225 -27
146 -33 284 -50 412 -50 l117 0 4 -42 4 -43 1 48 2 47 -113 0 c-124 0 -261 17
-451 55 -141 28 -230 34 -339 23z m702 -468 c-6 -5 -18 -6 -26 -3 -19 8 -16
11 13 11 17 0 22 -3 13 -8z m-345 -95 c82 -17 190 -66 230 -103 52 -49 81
-142 57 -181 -7 -11 -13 -12 -23 -4 -25 19 -144 60 -211 73 -118 22 -412 -5
-540 -49 -32 -11 -82 -34 -112 -51 -29 -16 -57 -30 -63 -30 -18 0 -35 74 -27
116 5 29 22 54 69 99 71 71 144 110 242 129 93 19 292 19 378 1z m-690 -3 c10
-16 -25 -52 -49 -52 l-24 0 27 29 c29 31 38 35 46 23z m-87 -48 c-3 -3 -12 -4
-19 -1 -8 3 -5 6 6 6 11 1 17 -2 13 -5z"/>
<path d="M1485 2345 c11 -33 14 -55 7 -53 -4 1 -26 -1 -49 -5 -40 -7 -84 -44
-83 -71 1 -6 8 2 16 17 17 32 50 47 103 47 30 0 44 -7 72 -36 18 -20 43 -40
54 -46 11 -6 1 6 -23 27 -24 21 -57 60 -73 89 -17 28 -28 42 -24 31z"/>
<path d="M1661 2134 c0 -11 3 -14 6 -6 3 7 2 16 -1 19 -3 4 -6 -2 -5 -13z"/>
<path d="M1285 2117 c-4 -10 -5 -21 -1 -24 10 -10 18 4 13 24 -4 17 -4 17 -12
0z"/>
<path d="M2445 1030 c-16 -7 -14 -8 12 -7 17 1 29 5 26 10 -5 9 -12 8 -38 -3z"/>
<path d="M2200 724 c0 -7 192 -96 197 -91 3 4 -40 25 -169 84 -16 6 -28 10
-28 7z"/>
<path d="M2013 1203 c9 -2 25 -2 35 0 9 3 1 5 -18 5 -19 0 -27 -2 -17 -5z"/>
<path d="M1923 1180 c-46 -27 -41 -34 5 -8 46 27 48 28 36 28 -5 0 -24 -9 -41
-20z"/>
<path d="M1967 1159 c-22 -11 -37 -23 -34 -26 3 -2 18 4 33 13 15 10 48 21 73
25 l46 6 -40 1 c-22 1 -57 -8 -78 -19z"/>
<path d="M1808 1143 c7 -3 16 -2 19 1 4 3 -2 6 -13 5 -11 0 -14 -3 -6 -6z"/>
<path d="M1724 1104 c-18 -14 -18 -15 4 -4 12 6 22 13 22 15 0 8 -5 6 -26 -11z"/>
<path d="M1835 1100 c-3 -5 -2 -10 4 -10 5 0 13 5 16 10 3 6 2 10 -4 10 -5 0
-13 -4 -16 -10z"/>
<path d="M1743 1069 c-18 -12 -33 -25 -33 -30 0 -6 15 1 33 15 17 13 43 26 57
29 l25 4 -25 1 c-14 1 -40 -8 -57 -19z"/>
<path d="M1592 1043 c-21 -21 -24 -26 -7 -12 16 15 39 31 50 37 11 6 14 12 7
12 -7 0 -30 -17 -50 -37z"/>
<path d="M1466 956 c-20 -18 -36 -40 -36 -47 1 -8 7 -2 15 12 8 15 29 36 47
48 18 11 28 21 21 21 -6 0 -28 -15 -47 -34z"/>
<path d="M3043 1213 c9 -2 25 -2 35 0 9 3 1 5 -18 5 -19 0 -27 -2 -17 -5z"/>
<path d="M3145 1180 c10 -11 20 -20 23 -20 3 0 -3 9 -13 20 -10 11 -20 20 -23
20 -3 0 3 -9 13 -20z"/>
<path d="M3069 1179 c-10 -6 -7 -9 12 -9 15 0 32 -7 39 -15 14 -17 35 -21 25
-5 -12 20 -61 39 -76 29z"/>
<path d="M3190 1150 c8 -5 20 -10 25 -10 6 0 3 5 -5 10 -8 5 -19 10 -25 10 -5
0 -3 -5 5 -10z"/>
<path d="M3375 1039 c4 -5 15 -9 27 -9 11 0 34 -15 51 -32 17 -20 26 -24 19
-12 -6 11 -17 26 -25 33 -20 16 -79 33 -72 20z"/>
<path d="M3150 1036 c0 -2 7 -7 16 -10 8 -3 12 -2 9 4 -6 10 -25 14 -25 6z"/>
<path d="M3450 1036 c0 -2 8 -10 18 -17 15 -13 16 -12 3 4 -13 16 -21 21 -21
13z"/>
<path d="M3360 1005 c0 -3 13 -11 29 -16 18 -6 33 -21 39 -37 5 -16 11 -22 15
-15 9 15 -31 59 -60 68 -13 3 -23 4 -23 0z"/>
<path d="M3587 949 c7 -7 15 -10 18 -7 3 3 -2 9 -12 12 -14 6 -15 5 -6 -5z"/>
<path d="M3570 923 c14 -9 38 -28 54 -42 28 -25 29 -25 13 -2 -17 25 -65 61
-82 61 -5 0 2 -7 15 -17z"/>
<path d="M3520 910 c0 -5 6 -10 14 -10 8 0 24 -12 35 -27 12 -14 25 -23 29
-19 4 4 -8 21 -26 37 -33 30 -52 37 -52 19z"/>
<path d="M1535 770 c-14 -23 27 -96 48 -83 5 3 7 2 4 -4 -9 -15 198 -201 210
-189 10 9 -39 67 -52 62 -8 -3 -19 3 -27 12 -12 15 -11 16 5 3 9 -7 17 -10 17
-6 0 10 -64 69 -73 67 -4 -1 -6 1 -5 5 3 16 -25 62 -35 56 -6 -3 -7 -1 -3 5
12 19 -34 82 -59 82 -13 0 -27 -5 -30 -10z"/>
<path d="M2757 533 c3 -7 9 -10 14 -7 14 8 11 21 -5 21 -8 0 -12 -6 -9 -14z"/>
<path d="M2735 480 c-3 -5 -1 -10 4 -10 6 0 11 5 11 10 0 6 -2 10 -4 10 -3 0
-8 -4 -11 -10z"/>
<path d="M1624 364 c8 -43 37 -110 58 -134 7 -8 32 -32 56 -52 35 -32 49 -38
86 -38 51 0 71 15 85 66 19 69 -25 124 -99 124 -37 0 -89 -49 -91 -84 -1 -18
-2 -18 -13 7 -7 15 -15 25 -18 21 -4 -3 -4 3 -2 14 3 10 0 25 -8 33 -7 8 -14
21 -16 29 -2 8 -13 24 -24 34 l-21 19 7 -39z m29 -29 c-3 -9 -8 -14 -10 -11
-3 3 -2 9 2 15 9 16 15 13 8 -4z m211 -28 c46 -33 0 -117 -64 -117 -54 0 -79
71 -40 110 23 23 77 27 104 7z"/>
<path d="M4258 383 c6 -2 18 -2 25 0 6 3 1 5 -13 5 -14 0 -19 -2 -12 -5z"/>
<path d="M2626 333 c-6 -15 -9 -15 -16 -3 -8 13 -10 12 -14 0 -2 -8 -7 -23
-10 -32 -3 -10 -3 -25 0 -33 9 -22 34 0 34 29 0 12 5 27 12 34 6 6 9 14 6 17
-3 3 -9 -2 -12 -12z m-20 -61 c-11 -10 -15 4 -8 28 l7 25 3 -23 c2 -13 1 -26
-2 -30z"/>
<path d="M3015 330 c10 -11 20 -20 23 -20 3 0 -3 9 -13 20 -10 11 -20 20 -23
20 -3 0 3 -9 13 -20z"/>
<path d="M2639 313 c-13 -16 -12 -17 4 -4 16 13 21 21 13 21 -2 0 -10 -8 -17
-17z"/>
<path d="M2938 283 c11 -16 30 -37 42 -48 l23 -20 -11 20 c-12 22 -60 75 -68
75 -3 0 3 -12 14 -27z"/>
<path d="M2181 263 c-10 -26 -10 -27 4 -9 8 11 15 23 15 28 0 15 -7 8 -19 -19z"/>
<path d="M2570 241 c0 -11 4 -22 9 -25 4 -3 6 6 3 19 -5 30 -12 33 -12 6z"/>
<path d="M2149 213 c-13 -17 -13 -17 6 -3 11 8 22 16 24 17 2 2 0 3 -6 3 -6 0
-17 -8 -24 -17z"/>
<path d="M2306 205 c4 -10 -8 -28 -32 -50 -21 -19 -33 -35 -27 -35 6 0 25 16
42 35 30 35 40 65 21 65 -5 0 -7 -7 -4 -15z"/>
<path d="M1074 195 c41 -42 88 -106 106 -148 22 -49 36 -65 20 -22 -25 66
-109 185 -131 185 -6 0 -4 -7 5 -15z"/>
<path d="M2930 180 c0 -9 99 -104 104 -99 2 2 -21 27 -50 54 -30 28 -54 48
-54 45z"/>
<path d="M2776 147 c3 -10 9 -15 12 -12 3 3 0 11 -7 18 -10 9 -11 8 -5 -6z"/>
<path d="M3896 116 c-18 -37 -22 -116 -6 -116 6 0 10 11 10 24 0 14 4 36 10
51 7 17 7 24 0 20 -13 -8 -13 1 1 27 6 11 9 22 6 24 -2 3 -12 -11 -21 -30z"/>
<path d="M2719 102 c11 -16 28 -35 38 -43 9 -8 2 5 -17 29 -38 48 -52 57 -21
14z"/>
<path d="M4012 105 c-1 -16 -4 -48 -7 -70 l-5 -40 11 33 c5 19 8 50 6 70 -3
33 -4 34 -5 7z"/>
<path d="M1006 111 c-4 -6 -1 -11 6 -11 17 0 80 -64 73 -73 -3 -4 -2 -5 2 -2
3 3 12 -3 19 -13 7 -9 14 -12 14 -7 0 18 -107 118 -114 106z"/>
<path d="M2426 78 l-17 -33 20 24 c18 20 27 41 18 41 -1 0 -11 -15 -21 -32z"/>
<path d="M3820 71 c-5 -21 -17 -42 -25 -45 -17 -6 -21 9 -5 19 6 3 10 11 10
17 0 6 -9 3 -20 -7 -11 -10 -20 -26 -20 -37 0 -14 8 -18 40 -18 31 0 40 4 40
18 0 9 3 28 5 42 5 22 4 22 -4 5 -9 -19 -10 -19 -10 2 -1 12 4 23 11 25 9 3 9
6 0 11 -7 5 -15 -6 -22 -32z"/>
<path d="M2093 23 c9 -2 23 -2 30 0 6 3 -1 5 -18 5 -16 0 -22 -2 -12 -5z"/>
<path d="M3910 15 c0 -8 4 -15 10 -15 5 0 7 7 4 15 -4 8 -8 15 -10 15 -2 0 -4
-7 -4 -15z"/>
<path d="M2350 10 c8 -5 20 -10 25 -10 6 0 3 5 -5 10 -8 5 -19 10 -25 10 -5 0
-3 -5 5 -10z"/>
</g>
</svg>
